<?xml version="1.0" encoding="UTF-8" standalone="no"?>
<svg width="22px" height="22px" viewBox="0 0 22 22" version="1.1" xmlns="http://www.w3.org/2000/svg" xmlns:xlink="http://www.w3.org/1999/xlink" xmlns:sketch="http://www.bohemiancoding.com/sketch/ns">
    <title>github</title>
    <description>Created with Sketch (http://www.bohemiancoding.com/sketch)</description>
    <defs></defs>
    <g id="Page 1" stroke="none" stroke-width="1" fill="none" fill-rule="evenodd">
        <g id="Rectangles" transform="translate(-32.000000, -96.000000)" fill="#FFFFFF">
            <path d="M43,96 C36.9248678,96 32,100.923532 32,107 L32,107 C32,113.075132 36.923532,118 43,118 L43,118 C49.0751322,118 54,113.076468 54,107 L54,107 C54,100.924868 49.076468,96 43,96 L43,96 Z M43,96" id="Rectangle 1 copy 4"></path>
        </g>
        <path d="M10.9873629,4.02465123 C7.12884921,4.02465123 4,7.15307148 4,11.012872 C4,14.0996829 6.0019659,16.7189252 8.77906622,17.6429095 C9.12824133,17.7068248 9.25607202,17.4910569 9.25607202,17.3061743 C9.25607202,17.140166 9.25006655,16.7009088 9.24663486,16.1175204 C7.3030078,16.5396191 6.89292008,15.1806673 6.89292008,15.1806673 C6.5750592,14.3733607 6.11692773,14.1584507 6.11692773,14.1584507 C5.48249285,13.7247701 6.16497148,13.7337783 6.16497148,13.7337783 C6.86632443,13.783109 7.2352318,14.4540056 7.2352318,14.4540056 C7.85851366,15.5216921 8.87043514,15.2136974 9.26894088,15.0348202 C9.33242727,14.5831232 9.51302029,14.2751284 9.71248764,14.1005409 C8.1609319,13.9242375 6.52958922,13.3245485 6.52958922,10.6469674 C6.52958922,9.88427286 6.80198012,9.26056204 7.24895858,8.77197426 C7.17732192,8.59524189 6.93710317,7.88488074 7.31759251,6.92271885 C7.31759251,6.92271885 7.9044126,6.73483348 9.23891354,7.63908548 C9.79613525,7.48423018 10.3941083,7.40658805 10.9882208,7.40401428 C11.5819043,7.40658805 12.1790194,7.48423018 12.737528,7.63908548 C14.0716,6.73483348 14.6575622,6.92271885 14.6575622,6.92271885 C15.0389094,7.88488074 14.7986907,8.59524189 14.727054,8.77197426 C15.1744615,9.26056204 15.4451365,9.88427286 15.4451365,10.6469674 C15.4451365,13.3314119 13.8112201,13.9220927 12.2545168,14.0949644 C12.5054596,14.3107323 12.7285198,14.7371206 12.7285198,15.3891429 C12.7285198,16.3234222 12.7199406,17.0771085 12.7199406,17.3061743 C12.7199406,17.4932017 12.8456265,17.7102565 13.2003781,17.6420516 C15.9749046,16.7163515 17.9747257,14.098825 17.9747257,11.012872 C17.9751547,7.15307148 14.8467344,4.02465123 10.9873629,4.02465123 L10.9873629,4.02465123 Z M10.9873629,4.02465123" id="GitHub" fill="#000000"></path>
    </g>
</svg>