<?xml version="1.0" encoding="UTF-8" standalone="no"?>
<svg width="22px" height="22px" viewBox="0 0 22 22" version="1.1" xmlns="http://www.w3.org/2000/svg" xmlns:xlink="http://www.w3.org/1999/xlink" xmlns:sketch="http://www.bohemiancoding.com/sketch/ns">
    <title>skype</title>
    <description>Created with Sketch (http://www.bohemiancoding.com/sketch)</description>
    <defs></defs>
    <g id="Page 1" fill="#D8D8D8" fill-rule="evenodd">
        <g id="Rectangles">
            <path d="M11,0 C4.92486775,0 0,4.923532 0,11 L0,11 C0,17.0751322 4.923532,22 11,22 L11,22 C17.0751322,22 22,17.076468 22,11 L22,11 C22,4.92486775 17.076468,0 11,0 L11,0 Z M11,0" id="Rectangle 1 copy 2" fill="#FFFFFF"></path>
        </g>
        <path d="M14.1736326,12.7362082 C14.1796321,11.8008832 13.6504104,11.1790301 12.9280515,10.8297153 C12.5723216,10.6706544 12.2078837,10.5407521 11.8604116,10.4509841 C11.3892923,10.3263247 10.9489011,10.2434896 10.4798429,10.1043482 C10.0997026,10.0103357 9.63426917,9.70524979 9.62082059,9.34688575 C9.70723159,8.71113658 10.4473628,8.56725612 10.8970805,8.56374753 C11.5695028,8.53690222 11.9908872,8.88977719 12.2837854,9.41107871 C12.4982906,9.78711228 12.6723425,10.0106427 13.0691754,10.0144818 C13.5011139,9.98904039 13.836616,9.63194432 13.8422952,9.21850451 C13.7819637,8.28737724 12.9876684,7.75054134 12.2592428,7.49816636 C11.3185142,7.2494406 10.2856147,7.24203903 9.41220067,7.5880351 C8.58138838,7.90907726 8.01024148,8.63074362 8.00095091,9.48811074 C8.04264084,11.063638 9.55669171,11.516577 10.6884605,11.7733348 C11.0331614,11.8452035 11.3654666,11.9203277 11.6824705,12.030102 C12.1064447,12.1911551 12.462011,12.4343496 12.4678605,12.9031089 C12.4678605,13.1855519 12.3328706,13.4209183 12.062893,13.6092175 C11.4852425,13.9065971 10.7719815,14.0667338 10.1975907,13.7504401 C9.78753775,13.5454792 9.58865645,13.1994737 9.42447085,12.8132402 C9.25280708,12.4136824 9.04139574,12.1630512 8.63908085,12.1584855 C8.21729766,12.174934 7.84739333,12.4916121 7.84141843,12.9031089 C7.9082424,13.7263885 8.45837071,14.4048572 9.08086328,14.7518307 C10.2597167,15.2582892 11.5604094,15.3564548 12.701023,14.8673752 C13.5875451,14.4693151 14.1644003,13.6601425 14.1736303,12.7362105 L14.1736326,12.7362082 Z M16.3089125,12.5051214 C16.5216187,12.9673019 16.6279775,13.4551581 16.6279775,13.9686924 C16.6092462,14.8649025 16.2696712,15.6958134 15.7137338,16.2860141 C15.0744411,16.9119805 14.3054681,17.2363789 13.4986876,17.2424703 C12.9659733,17.2330766 12.465087,17.1018172 12.0260803,16.8573196 C11.0007508,17.04365 9.80704413,16.8897992 8.93360322,16.5042641 C7.60831416,15.8780845 6.59214533,14.7703814 6.0558823,13.4936729 C5.64408865,12.3435949 5.53065727,11.2631122 5.74295354,10.1557044 C5.0396821,8.82650532 5.2493012,7.22092185 6.2276872,6.18223755 C7.31166797,5.09780091 8.87796511,4.96017124 10.1116905,5.72647665 C11.8649056,5.43029229 13.6625775,6.08267506 14.8485798,7.30559215 C15.8708019,8.42121941 16.4218241,9.88325524 16.4316322,11.2983176 C16.4299565,11.7160934 16.386947,12.1257949 16.3089147,12.5051214 L16.3089125,12.5051214 Z M16.3089125,12.5051214" id="Skype" fill="#000000"></path>
    </g>
</svg>