<?xml version="1.0" encoding="UTF-8" standalone="no"?>
<svg width="22px" height="22px" viewBox="0 0 22 22" version="1.1" xmlns="http://www.w3.org/2000/svg" xmlns:xlink="http://www.w3.org/1999/xlink" xmlns:sketch="http://www.bohemiancoding.com/sketch/ns">
    <title>spotify</title>
    <description>Created with Sketch (http://www.bohemiancoding.com/sketch)</description>
    <defs></defs>
    <g id="Page 1" fill="#D8D8D8" fill-rule="evenodd">
        <g id="Rectangles">
            <path d="M11,0 C4.92486775,0 0,4.923532 0,11 L0,11 C0,17.0751322 4.923532,22 11,22 L11,22 C17.0751322,22 22,17.076468 22,11 L22,11 C22,4.92486775 17.076468,0 11,0 L11,0 Z M11,0" id="Rectangle 1 copy 3" fill="#FFFFFF"></path>
        </g>
        <path d="M11,4 C7.13400664,4 4,7.2274344 4,11.2088277 C4,12.9456539 4.59680195,14.5384303 5.59020859,15.7829837 C8.34085586,12.7798143 13.8070984,13.6974333 15.1682129,17 C16.8861879,15.6863488 18,13.5817429 18,11.2088277 C18,7.2274344 14.8659934,4 11,4 L11,4 Z M15.5993048,7.84397603 C16.2657571,8.03606998 16.0069975,9.0263191 15.5044038,8.99946394 C12.7356929,8.22688085 10.6071079,7.82908883 7.40069402,8.26125794 C6.73424452,8.0691615 6.99300133,7.07891487 7.49559498,7.10577003 C10.353962,6.88755198 12.8390798,6.94985843 15.5993048,7.84397603 L15.5993048,7.84397603 Z M13.6884084,9.84452042 C14.206292,10.036937 14.0060056,11.0264098 13.6143242,10.9994598 C11.4608825,10.2275496 9.80541085,9.83011558 7.31157717,10.2615833 C6.79312307,10.0695598 6.99479013,9.07981418 7.38566139,9.10664397 C9.60603368,8.88554091 11.5448479,8.95288671 13.6884084,9.84452042 L13.6884084,9.84452042 Z M13.7329702,11.8444962 C14.1766215,12.0366478 14.0052396,13.0263876 13.67001,12.9994608 C11.8241736,12.2265003 10.4048952,11.8291901 8.26702386,12.2614145 C7.82305448,12.068918 7.99499303,11.0794778 8.33081124,11.1064498 C10.2394912,10.8878348 11.8882791,10.9479026 13.7329676,11.8444962 L13.7329702,11.8444962 Z M10.3371031,16.0000024 C9.33053081,16.0000024 8.42471998,16.5028317 8,17.2861414 C8.9155811,17.7417085 9.96153272,18 11.072328,18 C11.7433618,18 12.3907359,17.9059831 13,17.7309106 C12.5089656,16.7767958 11.3857796,16 10.3371031,16 L10.3371031,16.0000024 Z M10.3371031,16.0000024" id="Spotify" fill="#000000"></path>
    </g>
</svg>