<?xml version="1.0" encoding="UTF-8" standalone="no"?>
<svg width="22px" height="22px" viewBox="0 0 22 22" version="1.1" xmlns="http://www.w3.org/2000/svg" xmlns:xlink="http://www.w3.org/1999/xlink" xmlns:sketch="http://www.bohemiancoding.com/sketch/ns">
    <title>tumblr</title>
    <description>Created with Sketch (http://www.bohemiancoding.com/sketch)</description>
    <defs></defs>
    <g id="Page 1" fill="#D8D8D8" fill-rule="evenodd">
        <g id="Rectangles">
            <path d="M11,0 C4.92486775,0 0,4.923532 0,11 L0,11 C0,17.0751322 4.923532,22 11,22 L11,22 C17.0751322,22 22,17.076468 22,11 L22,11 C22,4.92486775 17.076468,0 11,0 L11,0 Z M11,0" id="Rectangle 1 copy 2" fill="#FFFFFF"></path>
        </g>
        <path d="M12.2148096,14.8239066 C11.9308885,14.7447727 11.6509226,14.6548109 11.4288362,14.4794921 C11.3405257,14.408843 11.2963688,14.3440746 11.2963688,14.2852064 L11.2963688,10.010931 L13.9987005,10.010931 L13.9987005,8.13872643 L11.2963688,8.13872643 L11.2963688,5.31275812 L9.74208654,5.31275812 C9.6262135,6.76361061 8.85754249,8.13872643 7.3400125,8.13872643 L7.3400125,10.010931 L8.62936001,10.010931 L8.62936001,14.6384549 C8.63466628,15.3661769 8.97067103,15.9923358 9.55663158,16.3252045 C10.1112049,16.612278 10.6955533,16.6853518 11.2787073,16.6872804 C11.8502633,16.6844967 12.4584965,16.6958762 13.0007831,16.6607882 C13.4755993,16.6437403 13.930747,16.5350957 14.3342875,16.3340352 L14.3342875,14.338194 L14.3342875,14.3205325 L14.3342875,14.338194 C14.098795,14.4912729 13.8397442,14.6207902 13.557148,14.7267653 C13.0830988,14.8822037 12.6599453,14.9332169 12.2148129,14.8239066 L12.2148096,14.8239066 Z M12.2148096,14.8239066" id="Tumblr" fill="#000000"></path>
    </g>
</svg>