<?xml version="1.0" encoding="UTF-8" standalone="no"?>
<svg width="22px" height="22px" viewBox="0 0 22 22" version="1.1" xmlns="http://www.w3.org/2000/svg" xmlns:xlink="http://www.w3.org/1999/xlink" xmlns:sketch="http://www.bohemiancoding.com/sketch/ns">
    <title>wordpress</title>
    <description>Created with Sketch (http://www.bohemiancoding.com/sketch)</description>
    <defs></defs>
    <g id="Page 1" fill="#D8D8D8" fill-rule="evenodd">
        <g id="Rectangles">
            <path d="M11,0 C4.92486775,0 0,4.923532 0,11 L0,11 C0,17.0751322 4.923532,22 11,22 L11,22 C17.0751322,22 22,17.076468 22,11 L22,11 C22,4.92486775 17.076468,0 11,0 L11,0 Z M11,0" id="Rectangle 1 copy 4" fill="#FFFFFF"></path>
        </g>
        <path d="M9.03594877,16.7646237 L10.865159,11.5056442 L12.7760301,16.6502981 C11.4886357,17.0812605 10.2715449,17.1073829 9.03594877,16.7646237 L9.03594877,16.7646237 Z M7.63137619,7.4715846 C6.96173384,7.56260969 6.31048239,7.59507639 5.67150644,7.5695792 C6.88475662,5.83503368 8.82731843,4.85919343 10.7508306,4.84209483 C12.3241256,4.87187364 13.7908209,5.46657353 14.8665537,6.44265382 C14.3676518,6.4057771 14.0689286,6.62457841 13.853954,6.99795099 C13.5415262,7.96185069 14.201715,8.67534765 14.5725727,9.39878948 C14.9232197,10.0597876 14.8954198,10.8114173 14.7032294,11.456651 L13.7886271,14.5761055 L11.5837778,8.02687898 C11.8135204,8.00549596 12.0447535,7.99861576 12.2534006,7.96154925 C12.500359,7.90656073 12.5545353,7.6767567 12.3840573,7.53691155 C12.3296214,7.49335281 12.2697316,7.47158181 12.2044019,7.47158181 L10.8814901,7.56957641 L9.87705726,7.56957641 C9.59347607,7.58632054 8.79273883,7.31238 8.72563392,7.68390206 C8.69095942,7.82701007 8.79777965,7.93918094 8.92162034,7.96154925 C9.14009508,7.98985992 9.3904085,8.02199446 9.59124315,8.04321002 L10.5548442,10.6237039 L9.21560136,14.5761055 L6.99441824,8.02687898 C7.22945569,8.00646449 7.46760527,7.99934705 7.6803721,7.96154925 C7.85458752,7.93971405 7.93079438,7.85261332 7.90902338,7.70023309 C7.87813927,7.56473655 7.75737723,7.47318951 7.63137619,7.47158181 L7.63137619,7.4715846 Z M5.1815418,8.48418155 L8.10501259,16.3889819 C7.05015758,15.8690487 6.21619444,15.1044429 5.62251054,14.1922968 C4.53646159,12.4591691 4.42222247,10.2603934 5.1815418,8.48418155 L5.1815418,8.48418155 Z M16.6059391,12.5427419 C16.1259808,14.1100694 15.145697,15.4082013 13.7886271,16.1929955 C13.8539568,16.0187829 13.9573886,15.7248046 14.0989391,15.3110552 L15.7974927,10.3787216 C15.9608143,9.899648 16.0751399,9.36612182 16.1404696,8.77816257 C16.1625197,8.53760702 16.1632594,8.29508091 16.1241386,8.07587768 C16.8200959,9.57689856 17.0175226,11.0637236 16.6059391,12.5427446 L16.6059391,12.5427419 Z M16.6059391,12.5427419" id="Shape" fill="#000000"></path>
    </g>
</svg>