<?xml version="1.0" encoding="UTF-8" standalone="no"?>
<svg width="22px" height="22px" viewBox="0 0 22 22" version="1.1" xmlns="http://www.w3.org/2000/svg" xmlns:xlink="http://www.w3.org/1999/xlink" xmlns:sketch="http://www.bohemiancoding.com/sketch/ns">
    <title>twitter</title>
    <description>Created with Sketch (http://www.bohemiancoding.com/sketch)</description>
    <defs></defs>
    <g id="Page-1" stroke="none" stroke-width="1" fill="none" fill-rule="evenodd" sketch:type="MSPage">
        <path d="M17.2390111,15.0067559 C17.1571448,14.8339042 17.004778,14.615571 16.7819243,14.3517562 C16.5590706,14.0879415 16.2839043,13.8559624 15.9564391,13.6558191 C15.9655399,13.5830459 15.9723621,13.5148168 15.9769057,13.4511317 C16.0122269,12.4706873 15.7774098,11.4534401 15.451597,10.6059769 C14.8200831,9.03032205 13.8524139,7.76219905 12.4702994,6.90113513 C11.0290119,6.07434544 9.35047178,5.89849032 7.8039206,6.048271 C6.77720401,6.16620232 5.76527384,6.5015062 5,7.13311418 C6.39966941,6.96577541 7.70589117,7.441982 8.7385608,8.21113445 C7.59143663,8.18210432 6.75796543,9.01199707 6.36443825,9.97144602 C6.54183296,9.92495333 6.7274102,9.93056313 6.89656916,9.94415437 C7.10479608,9.96371293 7.30245543,9.98325375 7.49692199,10.0260293 C6.76546711,10.2620421 6.12544461,10.6959261 5.79137418,11.3496745 C5.59541083,11.7639154 5.50694202,12.158378 5.50484215,12.6050905 C5.8475945,12.4246108 6.25986634,12.2487352 6.6373259,12.2639448 C6.06727997,12.7468938 5.61027366,13.36413 5.52530873,14.0720168 C5.47166584,14.6622629 5.61935536,15.2010779 5.83230733,15.702693 C6.68503484,14.7654445 7.64178849,13.9941332 8.74538299,13.5193608 C9.50009335,13.2102706 10.2526697,13.0449841 11.0308171,13.0417569 C10.9409961,13.7368439 11.0108389,14.4090946 11.3378157,14.9794642 C11.7226391,15.5926776 12.284085,15.9484639 12.9137418,16.1257136 C13.8147036,16.3567661 14.6934564,16.0303948 15.2469312,15.4024848 C15.8437966,15.4669641 16.4155603,15.7317832 16.8706127,16.0029012 C16.6772596,15.4173042 16.300751,14.8350532 15.7517734,14.5564436 C16.2744951,14.6532594 16.7732533,14.8080017 17.2390111,15.0067559 L17.2390111,15.0067559 Z M17.2390111,15.0067559" id="Twitter-copy" fill="#00ACED" sketch:type="MSShapeGroup" transform="translate(11.119506, 11.100000) scale(1, -1) translate(-11.119506, -11.100000) "></path>
        <path d="M25,-0.5 L25,-3 L-49,-3 L-49,-0.5 L-49,-0.5 L-49,23 L-49,25 L25,25 L25,23 L25,-0.5 Z M22,0 L7.10542736e-15,0 L0,22 L-1,22 L-1,0 L-23,0 L-23,2.22044605e-15 L-23,22 L22,22 L22,-8.8817842e-16 Z M-46,0 L-24,0 L-24,22 L-46,22 L-46,2.22044605e-15 L-46,0 Z M-46,0" id="Frame" fill="#CACACA" sketch:type="MSShapeGroup"></path>
    </g>
</svg>