<?xml version="1.0" encoding="UTF-8" standalone="no"?>
<svg width="22px" height="22px" viewBox="0 0 22 22" version="1.1" xmlns="http://www.w3.org/2000/svg" xmlns:xlink="http://www.w3.org/1999/xlink" xmlns:sketch="http://www.bohemiancoding.com/sketch/ns">
    <title>blogger</title>
    <description>Created with Sketch (http://www.bohemiancoding.com/sketch)</description>
    <defs></defs>
    <g id="Page 1" fill="#D8D8D8" fill-rule="evenodd">
        <g id="Rectangles">
            <path d="M11,0 C4.92486775,0 0,4.923532 0,11 L0,11 C0,17.0751322 4.923532,22 11,22 L11,22 C17.0751322,22 22,17.076468 22,11 L22,11 C22,4.92486775 17.076468,0 11,0 L11,0 Z M11,0" id="Rectangle 1 copy 3" fill="#FFFFFF"></path>
        </g>
        <path d="M15.9708908,10.1691728 L15.8865747,9.99451784 L15.7455458,9.8836019 C15.5613551,9.73956175 14.6288582,9.89363954 14.3779172,9.66478132 C14.1997491,9.50116777 14.1721455,9.20606112 14.1179423,8.80706489 C14.0180678,8.03165711 13.9543287,7.99150654 13.833877,7.73002599 C13.3947302,6.79803101 12.2037641,6.09690178 11.3851945,6.00003854 L9.16888331,6.00003854 C7.42484316,6.00003854 6,7.42839488 6,9.17193314 L6,12.8713058 C6,14.6123346 7.42534504,16.0376797 9.16888331,16.0376797 L12.8105395,16.0376797 C14.5545797,16.0376797 15.9708908,14.6123346 15.9804266,12.8713058 L16,10.3091979 L15.9708908,10.1691728 L15.9708908,10.1691728 Z M9.20953576,8.59175749 L10.9671267,8.59175749 C11.3023839,8.59175749 11.5739021,8.86427944 11.5739021,9.19652536 C11.5739021,9.52776752 11.3023839,9.80330077 10.9671267,9.80330077 L9.20953576,9.80330077 C8.87427854,9.80330077 8.60276035,9.52776752 8.60276035,9.19652536 C8.60276035,8.86427944 8.87427854,8.59175749 9.20953576,8.59175749 L9.20953576,8.59175749 Z M12.7804266,13.4283949 L9.20953576,13.4283949 C8.87427854,13.4283949 8.60276035,13.1528616 8.60276035,12.8246308 C8.60276035,12.4923848 8.87427854,12.2218704 9.20953576,12.2218704 L12.7804266,12.2218704 C13.1136763,12.2218704 13.3841907,12.4923848 13.3841907,12.8246308 C13.3841907,13.1528616 13.1136763,13.4283949 12.7804266,13.4283949 L12.7804266,13.4283949 Z M12.7804266,13.4283949" id="Blogger" fill="#000000"></path>
    </g>
</svg>