<?xml version="1.0" encoding="UTF-8" standalone="no"?>
<svg width="22px" height="22px" viewBox="0 0 22 22" version="1.1" xmlns="http://www.w3.org/2000/svg" xmlns:xlink="http://www.w3.org/1999/xlink" xmlns:sketch="http://www.bohemiancoding.com/sketch/ns">
    <title>googleplus</title>
    <description>Created with Sketch (http://www.bohemiancoding.com/sketch)</description>
    <defs></defs>
    <g id="Page 1" fill="#D8D8D8" fill-rule="evenodd">
        <g id="Rectangles">
            <path d="M11,0 C4.92486775,0 0,4.923532 0,11 L0,11 C0,17.0751322 4.923532,22 11,22 L11,22 C17.0751322,22 22,17.076468 22,11 L22,11 C22,4.92486775 17.076468,0 11,0 L11,0 Z M11,0" id="Rectangle 1 copy 2" fill="#FFFFFF"></path>
        </g>
        <path d="M19.0765,7.71886867 L19.0765,8.37013865 L16.5876638,8.37013865 L16.5876638,10.9752186 L15.9654547,10.9752186 L15.9654547,8.37013865 L13.4766185,8.37013865 L13.4766185,7.71886867 L15.9654547,7.71886867 L15.9654547,5.11378877 L16.5876638,5.11378877 L16.5876638,7.71886867 Z M10.7497873,12.5968808 C11.7660103,13.3490976 12.0946922,14.0474219 12.0945367,15.2135207 C12.0945367,16.6676438 10.7496318,18.1137888 8.31461665,18.1137888 C6.17872852,18.1137888 4.3765,17.2041274 4.3765,15.7500044 C4.3765,14.2735754 6.02037632,12.8497364 8.15626445,12.8497364 C8.38897064,12.8497364 8.60223279,12.8430608 8.823117,12.8430608 C8.53067875,12.5454305 8.29952808,12.1807193 8.29952808,11.7308545 C8.29952808,11.4639967 8.38088192,11.2070707 8.49474617,10.9789634 C8.37870419,10.9875927 8.26017336,10.9901978 8.13822039,10.9901978 C6.38405751,10.9901978 5.20854906,9.68375019 5.20854906,8.06518148 C5.20854906,6.48113008 6.83158137,5.11378877 8.55587821,5.11378877 L12.402219,5.11378877 L11.5413928,5.76505874 L10.3218631,5.76505874 C11.1307348,6.09069373 11.5617702,7.0778562 11.5617702,8.09058101 C11.5617702,8.94146524 11.1116019,9.67284142 10.4755487,10.1930433 C9.85489517,10.7005454 9.73729766,10.9131851 9.73729766,11.3446514 C9.73729766,11.7127818 10.402128,12.3393035 10.7497873,12.5968808 Z M8.69509749,10.5797349 C7.70407402,10.5487995 6.76236062,9.41933458 6.59125313,8.05736624 C6.42014564,6.69523509 7.08466491,5.65255185 8.07553282,5.68365 C9.06624519,5.71474814 10.0082697,6.80774198 10.1793772,8.16971031 C10.3501736,9.53200429 9.6856543,10.610833 8.69509749,10.5797349 L8.69509749,10.5797349 Z M8.30699459,17.4709853 C6.83064806,17.4709853 5.76449285,16.4927778 5.76449285,15.3177239 C5.76449285,14.1661158 7.08699819,13.2074464 8.56334472,13.2242166 C8.90789299,13.2279614 9.22895286,13.2860872 9.5204578,13.3847546 C10.3218631,13.9681297 10.8967842,14.2976723 11.0588697,14.9624562 C11.0893579,15.0972691 11.106002,15.2359896 11.106002,15.3776408 C11.1058465,16.5526946 10.3825284,17.4709853 8.30699459,17.4709853 L8.30699459,17.4709853 Z M8.30699459,17.4709853" id="Google Plus" fill="#000000"></path>
    </g>
</svg>