<?xml version="1.0" encoding="UTF-8" standalone="no"?>
<svg width="22px" height="22px" viewBox="0 0 22 22" version="1.1" xmlns="http://www.w3.org/2000/svg" xmlns:xlink="http://www.w3.org/1999/xlink" xmlns:sketch="http://www.bohemiancoding.com/sketch/ns">
    <title>instagram</title>
    <description>Created with Sketch (http://www.bohemiancoding.com/sketch)</description>
    <defs></defs>
    <g id="Page 1" fill="#D8D8D8" fill-rule="evenodd">
        <g id="Rectangles">
            <path d="M11,0 C4.92486775,0 0,4.923532 0,11 L0,11 C0,17.0751322 4.923532,22 11,22 L11,22 C17.0751322,22 22,17.076468 22,11 L22,11 C22,4.92486775 17.076468,0 11,0 L11,0 Z M11,0" id="Rectangle 1 copy" fill="#FFFFFF"></path>
        </g>
        <path d="M5,6 L6,6 L6,9 L7,9 L8,9 L8,6 L17,6 L17,10 L13.8292943,10 C13.4174558,8.83480596 12.3062176,8 11,8 C9.69378237,8 8.58254424,8.83480596 8.17070569,10 L5,10 Z M14,8 C14,8.55228475 14.4438648,9 15,9 C15.5522847,9 16,8.55613518 16,8 C16,7.44771525 15.5561352,7 15,7 C14.4477153,7 14,7.44386482 14,8 Z M5,11 L8,11 C8,12.6568543 9.34314567,14 11,14 C12.6568543,14 14,12.6568543 14,11 L17,11 L17,16 L5,16 Z M11,13 C9.89543045,13 9,12.1045696 9,11 C9,9.89543045 9.89543045,9 11,9 C12.1045696,9 13,9.89543045 13,11 C13,12.1045696 12.1045696,13 11,13 Z M11,13" id="Instagram" fill="#000000"></path>
    </g>
</svg>