<?xml version="1.0" encoding="UTF-8" standalone="no"?>
<svg width="22px" height="22px" viewBox="0 0 22 22" version="1.1" xmlns="http://www.w3.org/2000/svg" xmlns:xlink="http://www.w3.org/1999/xlink" xmlns:sketch="http://www.bohemiancoding.com/sketch/ns">
    <title>500px</title>
    <description>Created with Sketch (http://www.bohemiancoding.com/sketch)</description>
    <defs></defs>
    <g id="Page 1" fill="#D8D8D8" fill-rule="evenodd">
        <g id="Rectangles">
            <path d="M11,0 C4.92486775,0 0,4.923532 0,11 L0,11 C0,17.0751322 4.923532,22 11,22 L11,22 C17.0751322,22 22,17.076468 22,11 L22,11 C22,4.92486775 17.076468,0 11,0 L11,0 Z M11,0" id="Rectangle 1 copy 4" fill="#000000"></path>
        </g>
        <path d="M18.8216624,10.6156131 C18.7028006,10.2887431 18.5341889,10.0040932 18.31641,9.7612601 C18.0983622,9.5186511 17.8308783,9.32803294 17.5138686,9.18922635 C17.1966796,9.05064386 16.8400045,8.98121816 16.4438881,8.98121816 C16.1266543,8.98121816 15.8320096,9.03092319 15.5596403,9.12979544 C15.2870022,9.22889178 15.0343535,9.36007902 14.8016945,9.52353644 C14.5688114,9.68694904 14.3507188,9.8777913 14.1477752,10.0955702 C13.9446075,10.3135732 13.7488351,10.5364167 13.5607268,10.7641456 C13.3623997,10.5264219 13.1617868,10.3012478 12.9587984,10.0881301 C12.7556307,9.87523658 12.5376277,9.68694904 12.3049239,9.52353644 C12.0719959,9.36012384 11.8193473,9.2289366 11.546978,9.12979544 C11.2743398,9.03087838 10.9748098,8.98121816 10.6478502,8.98121816 C10.2514648,8.98121816 9.89478968,9.05319858 9.57782481,9.19666642 C9.26059102,9.34035836 8.99310709,9.53353123 8.77528338,9.77614023 C8.56297249,10.0126089 8.40036665,10.2914771 8.28688318,10.6122516 C8.19204471,10.3957277 8.07130046,10.2021514 7.9246056,10.0313884 C7.72834017,9.80321133 7.48756877,9.62137783 7.20233625,9.48579826 C6.91692444,9.35039797 6.58875464,9.28254095 6.2179165,9.28254095 C5.91829685,9.28254095 5.65081292,9.32718137 5.41537508,9.4162381 C5.17998205,9.50551893 4.95875204,9.65342391 4.75195398,9.86022198 L4.73057498,9.83879817 L5.03019463,8.13784599 L8.12261901,8.13784599 L8.12261901,6.88621123 L3.93870064,6.88621123 L3.20038584,11.0262511 L4.57003084,11.0262511 C4.71981826,10.8194979 4.88031758,10.6678729 5.05152881,10.5716002 C5.22274003,10.4753274 5.44374594,10.4271911 5.71494991,10.4271911 C5.92179279,10.4271911 6.1036711,10.4629572 6.26067449,10.5341757 C6.41754342,10.6055287 6.55307817,10.7053421 6.66727875,10.8337057 C6.78130005,10.9620693 6.86690566,11.1118567 6.92409559,11.2829783 C6.98110624,11.4541447 7.0097012,11.636023 7.0097012,11.8285684 C7.0097012,12.0141668 6.97926863,12.1941179 6.91876205,12.368825 C6.85807618,12.5436667 6.77247057,12.69695 6.6619452,12.8288544 C6.55124056,12.9608932 6.41584027,13.0678778 6.25534095,13.1497634 C6.09484163,13.2318282 5.91457682,13.2727934 5.71494991,13.2727934 C5.37252745,13.2727934 5.0906564,13.1711424 4.86965049,12.967885 C4.6484653,12.7646277 4.52005688,12.4918551 4.48442523,12.1495223 L2.96499281,12.1495223 C2.9720295,12.541829 3.05225675,12.8859995 3.2057642,13.1818094 C3.35909237,13.4778435 3.56423211,13.7257412 3.82104895,13.9253233 C4.07782097,14.1250847 4.37210708,14.2729897 4.70381763,14.3692624 C5.03552818,14.4655351 5.38328418,14.5137163 5.74708563,14.5137163 C6.12513974,14.5207081 6.48172522,14.4584088 6.8171558,14.3264596 C7.15236229,14.1946001 7.44660357,14.0073882 7.69992448,13.7648688 C7.95306611,13.5224839 8.15466509,13.2353242 8.30449732,12.9037032 C8.30821736,12.8955012 8.31130992,12.8870751 8.31489549,12.8788283 C8.43232309,13.1818991 8.59510821,13.4456182 8.80499884,13.6688651 C9.03281734,13.9116981 9.30518661,14.104871 9.62237558,14.2483389 C9.93934045,14.3920308 10.3009009,14.4637871 10.7072811,14.4637871 C11.0342407,14.4637871 11.3289302,14.4169057 11.5915288,14.3226499 C11.8539481,14.2286182 12.096826,14.1049158 12.3197592,13.9512291 C12.5426923,13.7977665 12.753076,13.6194737 12.9514031,13.4163061 C13.1494613,13.2134073 13.3526738,13.0027996 13.5607268,12.7848414 C13.7487903,13.0027996 13.9471174,13.2134073 14.1552153,13.4163061 C14.3632683,13.6194289 14.5836467,13.7977665 14.8165747,13.9512291 C15.0491889,14.1049158 15.2995517,14.2286182 15.5670356,14.3226499 C15.8345643,14.4169506 16.1218138,14.4637871 16.4290079,14.4637871 C16.8251692,14.4637871 17.184399,14.3920308 17.5064734,14.2483389 C17.8283236,14.104871 18.0983622,13.9065887 18.31641,13.6540297 C18.5341889,13.4014259 18.7028006,13.1068261 18.8216624,12.7699165 C18.9405691,12.4333206 19,12.0716256 19,11.6853247 C19,11.2990238 18.9405691,10.9424831 18.8216624,10.6156131 L18.8216624,10.6156131 Z M12.2677235,12.183137 C12.1191014,12.326829 11.9605293,12.4556856 11.7921418,12.569438 C11.6235749,12.6834145 11.4452373,12.7774462 11.2571291,12.8517572 C11.0687967,12.9260235 10.8804644,12.963179 10.6923561,12.963179 C10.3256862,12.963179 10.0384368,12.8494266 9.83038378,12.6214288 C9.62233076,12.3937 9.51830425,12.1013859 9.51830425,11.7448004 C9.51830425,11.4179304 9.61977604,11.1233306 9.82298853,10.860732 C10.0259321,10.5983575 10.3008561,10.466991 10.6478053,10.466991 C10.8359136,10.466991 11.0242011,10.5092111 11.2125335,10.5932929 C11.4005969,10.6775539 11.5814892,10.7840903 11.7549862,10.9127228 C11.9282143,11.0415795 12.0942265,11.1826718 12.2528434,11.3361345 C12.4111914,11.489866 12.5500876,11.6310032 12.6689494,11.7595909 C12.5500876,11.8984872 12.4163456,12.0396244 12.2677235,12.183137 L12.2677235,12.183137 Z M17.3058156,12.6065935 C17.1074885,12.8443172 16.8251244,12.963179 16.4587234,12.963179 C16.2506256,12.963179 16.054898,12.928623 15.8716751,12.8591525 C15.688228,12.7899957 15.5124452,12.6982946 15.3441024,12.5842733 C15.1755356,12.4705209 15.0171428,12.3416643 14.8685655,12.1979724 C14.7199434,12.0545045 14.581092,11.9082579 14.4524595,11.7596806 C14.5713213,11.6310929 14.7051081,11.4899108 14.8536854,11.3362241 C15.0023075,11.1827615 15.1583696,11.0416691 15.3218271,10.9128125 C15.4852845,10.78418 15.6585574,10.6775987 15.8419596,10.5933825 C16.0251825,10.5093456 16.2158007,10.4670806 16.4141278,10.4670806 C16.7805736,10.4670806 17.0703777,10.5910519 17.2835402,10.8385014 C17.4964786,11.0862199 17.6030598,11.3833744 17.6030598,11.7300099 C17.603015,12.0768247 17.5038738,12.368825 17.3058156,12.6065935 L17.3058156,12.6065935 Z M17.3058156,12.6065935" id="Shape" fill="#FFFFFF"></path>
    </g>
</svg>