<?xml version="1.0" encoding="UTF-8" standalone="no"?>
<svg width="22px" height="22px" viewBox="0 0 22 22" version="1.1" xmlns="http://www.w3.org/2000/svg" xmlns:xlink="http://www.w3.org/1999/xlink" xmlns:sketch="http://www.bohemiancoding.com/sketch/ns">
    <title>aboutme</title>
    <description>Created with Sketch (http://www.bohemiancoding.com/sketch)</description>
    <defs></defs>
    <g id="Page 1" fill="#D8D8D8" fill-rule="evenodd">
        <g id="Rectangles">
            <path d="M11,0 C4.92486775,0 0,4.923532 0,11 L0,11 C0,17.0751322 4.923532,22 11,22 L11,22 C17.0751322,22 22,17.076468 22,11 L22,11 C22,4.92486775 17.076468,0 11,0 L11,0 Z M11,0" id="Rectangle 1 copy 5" fill="#000000"></path>
        </g>
        <path d="M10.967721,13.4626552 L10.967721,10.2387667 C10.967721,9.66464116 10.6876066,9.33456476 10.1039512,9.33456476 C9.5791968,9.33456476 9.22880276,9.67501325 8.9955414,9.91997753 L8.9955414,13.4626552 L7.47850588,13.4626552 L7.47850588,10.2387667 C7.47850588,9.66464116 7.20977005,9.33456476 6.62611465,9.33456476 C6.10136025,9.33456476 5.73958761,9.67501325 5.51770485,9.91997753 L5.51770485,13.4626552 L4,13.4626552 L4,8.32420151 L5.51770485,8.32420151 L5.51770485,8.91998636 C5.77472741,8.6432957 6.35838281,8.17533156 7.26800173,8.17533156 C8.07320523,8.17533156 8.62205549,8.48405367 8.86736478,9.11125984 C9.20537623,8.66465 9.8358847,8.17533156 10.7465076,8.17533156 C11.8432041,8.17533156 12.4850912,8.77081135 12.4850912,9.92028259 L12.4850912,13.4629603 L10.967721,13.4629603 L10.967721,13.4626552 Z M15.1580589,11.3348522 C15.3099968,12.015139 15.9284573,12.4943904 16.7922271,12.4943904 C17.2594192,12.4943904 17.9357767,12.3354534 18.3330239,11.9623634 L19.0910396,12.7604039 C18.4022995,13.4199466 17.3758825,13.600848 16.6754291,13.600848 C14.971316,13.600848 13.6406888,12.4837133 13.6406888,10.8876322 C13.6406888,9.39832259 14.8658966,8.1750265 16.5937709,8.1750265 C18.2627443,8.1750265 19.5,9.34524191 19.5,10.8876322 L19.5,11.3348522 L15.1580589,11.3348522 L15.1580589,11.3348522 Z M16.6175321,9.20674405 C15.7300011,9.20674405 15.2400518,9.80283396 15.1349671,10.4516995 L18.1111411,10.4516995 C18.0291482,9.83456035 17.5512469,9.20674405 16.6175321,9.20674405 L16.6175321,9.20674405 Z M16.6175321,9.20674405" id="About.me" fill="#FFFFFF"></path>
    </g>
</svg>