<?xml version="1.0" encoding="UTF-8" standalone="no"?>
<svg width="22px" height="22px" viewBox="0 0 22 22" version="1.1" xmlns="http://www.w3.org/2000/svg" xmlns:xlink="http://www.w3.org/1999/xlink" xmlns:sketch="http://www.bohemiancoding.com/sketch/ns">
    <title>dribbble</title>
    <description>Created with Sketch (http://www.bohemiancoding.com/sketch)</description>
    <defs></defs>
    <g id="Page 1" fill="#D8D8D8" fill-rule="evenodd">
        <g id="Rectangles">
            <path d="M11,0 C4.92486775,0 0,4.923532 0,11 L0,11 C0,17.0751322 4.923532,22 11,22 L11,22 C17.0751322,22 22,17.076468 22,11 L22,11 C22,4.92486775 17.076468,0 11,0 L11,0 Z M11,0" id="Rectangle 1" fill="#000000"></path>
        </g>
        <path d="M11,4 C7.13400664,4 4,7.13400664 4,11 C4,14.8659934 7.13400664,18 11,18 C14.8659934,18 18,14.8659934 18,11 C18,7.13400664 14.8659934,4 11,4 L11,4 Z M11.3097888,5 C12.725983,5 14.0184544,5.62028914 15,6.64155821 C14.2788653,7.75577563 13.182893,8.49752454 12.0852879,9 C11.4867639,7.71785755 10.7500207,6.36609158 10,5.181751 C10.4199772,5.06294995 10.8586505,5 11.3097888,5 L11.3097888,5 Z M8.5891561,6 C9.43387041,7.11035198 10.2516585,8.14055181 11,9.30662289 C9.10905656,9.73724654 6.97314576,9.9955484 5,10 C5.41602218,8.22520759 6.77157472,6.75229377 8.5891561,6 L8.5891561,6 Z M15.5649536,7 C16.4540407,8.09143026 16.9902536,9.48301713 17,11 C15.5256738,10.7087391 14.0592857,10.6319192 12.5659937,10.782697 C12.3977829,10.362886 12.1948263,9.96423964 12,9.53426545 C13.2872778,9.01356994 14.6631032,8.12234046 15.5649536,7 L15.5649536,7 Z M11.4872801,10 C11.6454767,10.3173789 11.8284485,10.6535471 12,10.9973535 C9.94440053,11.8528175 7.75825688,12.9962835 6.62275489,15 C5.61404318,13.944189 5,12.5459323 5,11.0123522 C5,10.9541124 5.00104371,10.8959514 5.00280532,10.8381143 C7.20460459,10.8280299 9.36520046,10.5679547 11.4872801,10.0000027 L11.4872801,10 Z M17.006207,11 C17.004282,11.0233652 17.0021957,11.0467496 17,11.0700355 C17.0022039,11.0467687 17.0042684,11.0233434 17.006207,11 L17.006207,11 Z M14.2391572,12.0000407 C15.1699791,11.9975509 16.1309416,12.1092795 17,12.3055043 C16.7157637,13.8417587 15.6909966,15.1660202 14.2500589,16 C13.9062961,14.657272 13.5787923,13.372589 13,12.0770172 C13.3991777,12.0258888 13.816056,12.0011713 14.2391572,12.0000407 L14.2391572,12.0000407 Z M17.0128543,12 C17.0087719,12.0338844 17.0046457,12.0677988 17,12.1015082 C17.0046676,12.0677168 17.0087473,12.0339691 17.0128543,12 L17.0128543,12 Z M11.7270853,12 C12.2781186,13.4213129 12.7106006,14.9954401 13,16.5274507 C12.2829468,16.8317651 11.4942786,17 10.6661006,17 C9.28423369,17 8.01215691,16.5311074 7,15.7441433 C8.08200873,13.9898156 9.75790404,12.6629292 11.7270826,12 L11.7270853,12 Z M11.7270853,12" id="Dribbble" fill="#FFFFFF"></path>
    </g>
</svg>