<?xml version="1.0" encoding="UTF-8" standalone="no"?>
<svg width="22px" height="22px" viewBox="0 0 22 22" version="1.1" xmlns="http://www.w3.org/2000/svg" xmlns:xlink="http://www.w3.org/1999/xlink" xmlns:sketch="http://www.bohemiancoding.com/sketch/ns">
    <title>twitter</title>
    <description>Created with Sketch (http://www.bohemiancoding.com/sketch)</description>
    <defs></defs>
    <g id="Page 1" fill="#D8D8D8" fill-rule="evenodd">
        <g id="Rectangles">
            <path d="M11,0 C4.92486775,0 0,4.923532 0,11 L0,11 C0,17.0751322 4.923532,22 11,22 L11,22 C17.0751322,22 22,17.076468 22,11 L22,11 C22,4.92486775 17.076468,0 11,0 L11,0 Z M11,0" id="Rectangle 1 copy 3" fill="#000000"></path>
        </g>
        <path d="M17.2390111,14.9067751 C17.1571448,14.7339235 17.004778,14.5155902 16.7819243,14.2517755 C16.5590706,13.9879607 16.2839043,13.7559817 15.9564391,13.5558384 C15.9655399,13.4830652 15.9723621,13.414836 15.9769057,13.351151 C16.0122269,12.3707065 15.7774098,11.3534593 15.451597,10.5059962 C14.8200831,8.93034132 13.8524139,7.66221832 12.4702994,6.8011544 C11.0290119,5.97436471 9.35047178,5.79850959 7.8039206,5.94829027 C6.77720401,6.06622159 5.76527384,6.40152547 5,7.03313345 C6.39966941,6.86579468 7.70589117,7.34200127 8.7385608,8.11115372 C7.59143663,8.08212359 6.75796543,8.91201634 6.36443825,9.87146529 C6.54183296,9.8249726 6.7274102,9.8305824 6.89656916,9.84417364 C7.10479608,9.8637322 7.30245543,9.88327302 7.49692199,9.9260486 C6.76546711,10.1620613 6.12544461,10.5959454 5.79137418,11.2496937 C5.59541083,11.6639346 5.50694202,12.0583972 5.50484215,12.5051097 C5.8475945,12.32463 6.25986634,12.1487544 6.6373259,12.1639641 C6.06727997,12.6469131 5.61027366,13.2641493 5.52530873,13.9720361 C5.47166584,14.5622822 5.61935536,15.1010972 5.83230733,15.6027123 C6.68503484,14.6654637 7.64178849,13.8941525 8.74538299,13.4193801 C9.50009335,13.1102898 10.2526697,12.9450034 11.0308171,12.9417762 C10.9409961,13.6368632 11.0108389,14.3091139 11.3378157,14.8794835 C11.7226391,15.4926969 12.284085,15.8484832 12.9137418,16.0257329 C13.8147036,16.2567854 14.6934564,15.9304141 15.2469312,15.3025041 C15.8437966,15.3669834 16.4155603,15.6318025 16.8706127,15.9029205 C16.6772596,15.3173235 16.300751,14.7350724 15.7517734,14.4564629 C16.2744951,14.5532787 16.7732533,14.708021 17.2390111,14.9067751 L17.2390111,14.9067751 Z M17.2390111,14.9067751" id="Twitter" fill="#FFFFFF" transform="translate(11.119506, 11.000019) scale(1, -1) translate(-11.119506, -11.000019)"></path>
    </g>
</svg>