<?xml version="1.0" encoding="UTF-8" standalone="no"?>
<svg width="22px" height="22px" viewBox="0 0 22 22" version="1.1" xmlns="http://www.w3.org/2000/svg" xmlns:xlink="http://www.w3.org/1999/xlink" xmlns:sketch="http://www.bohemiancoding.com/sketch/ns">
    <title>vimeo</title>
    <description>Created with Sketch (http://www.bohemiancoding.com/sketch)</description>
    <defs></defs>
    <g id="Page 1" fill="#D8D8D8" fill-rule="evenodd">
        <g id="Rectangles">
            <path d="M11,0 C4.92486775,0 0,4.923532 0,11 L0,11 C0,17.0751322 4.923532,22 11,22 L11,22 C17.0751322,22 22,17.076468 22,11 L22,11 C22,4.92486775 17.076468,0 11,0 L11,0 Z M11,0" id="Rectangle 1 copy 3" fill="#000000"></path>
        </g>
        <path d="M11.838743,8.70675115 C12.1696704,8.7124512 12.5483032,8.67804339 12.8321283,8.78586978 C13.2703801,9.02296197 13.2764863,9.47990199 13.2453063,9.86715783 C13.0498942,10.7240971 12.4426509,12.2833724 11.6629225,12.4077452 C11.4988293,12.4253271 11.3288638,12.3344813 11.1530433,12.1352254 C10.4715915,11.2816057 10.5560064,10.1586766 10.3970155,9.21662681 C10.2482521,8.42849617 10.136091,6.83786168 9.20143669,6.4914293 C8.17197473,6.36569923 7.26797295,7.13276322 6.60808551,7.73974558 C6.20369855,8.11482066 5.79052056,8.47233141 5.36855156,8.81224266 L5.36855156,8.88257034 C5.4689415,9.0032878 5.55030943,9.12635772 5.64107321,9.24299969 C5.79510069,9.39800365 6.0761338,9.36007769 6.24765365,9.30453641 C6.87130274,9.14239419 7.09050509,8.98347298 7.42565046,9.57705616 C7.93071571,10.942417 8.31310754,12.4812446 8.64760237,13.7879259 C8.88139078,14.5332252 9.18972529,15.4851103 9.93988244,15.7922647 C10.4033416,15.9891874 11.2028427,15.7245532 11.5574303,15.510954 C13.0748502,14.5523332 14.2490932,13.0184285 15.0914207,11.5374402 C15.7063755,10.2895828 17.2353116,7.80694016 16.3749098,6.63208465 C14.6571003,5.21245894 12.3754172,7.15249189 11.838743,8.70675115 Z M11.838743,8.70675115" id="Vimeo" fill="#FFFFFF"></path>
    </g>
</svg>