<?xml version="1.0" encoding="UTF-8" standalone="no"?>
<svg width="22px" height="22px" viewBox="0 0 22 22" version="1.1" xmlns="http://www.w3.org/2000/svg" xmlns:xlink="http://www.w3.org/1999/xlink" xmlns:sketch="http://www.bohemiancoding.com/sketch/ns">
    <!-- Generator: Sketch 3.4.2 (15855) - http://www.bohemiancoding.com/sketch -->
    <title>fullscreen</title>
    <desc>Created with Sketch.</desc>
    <defs></defs>
    <g id="Page-1" stroke="none" stroke-width="1" fill="none" fill-rule="evenodd" sketch:type="MSPage">
        <g id="Slices" sketch:type="MSLayerGroup" transform="translate(-163.000000, -99.000000)"></g>
        <g id="Rectangles" sketch:type="MSLayerGroup" transform="translate(-160.000000, -96.000000)" fill="#FFFFFF">
            <rect id="Rectangle-1-copy-7" sketch:type="MSShapeGroup" x="160" y="96" width="22" height="22"></rect>
        </g>
        <path d="M6,5 L9,5 L9,6 L6,6 L6,5 Z M5,16 L9,16 L9,17 L5,17 L5,16 Z M13,5 L17,5 L17,6 L13,6 L13,5 Z M13,16 L16,16 L16,17 L13,17 L13,16 Z M5,5 L6,5 L6,9 L5,9 L5,5 Z M5,13 L6,13 L6,16 L5,16 L5,13 Z M16,6 L17,6 L17,9 L16,9 L16,6 Z M16,13 L17,13 L17,17 L16,17 L16,13 Z" id="Full-screen" fill="#000000" sketch:type="MSShapeGroup"></path>
    </g>
</svg>