<?xml version="1.0" encoding="UTF-8" standalone="no"?>
<svg width="22px" height="22px" viewBox="0 0 22 22" version="1.1" xmlns="http://www.w3.org/2000/svg" xmlns:xlink="http://www.w3.org/1999/xlink" xmlns:sketch="http://www.bohemiancoding.com/sketch/ns">
    <title>imdb</title>
    <description>Created with Sketch (http://www.bohemiancoding.com/sketch)</description>
    <defs></defs>
    <g id="Page 1" fill="#D8D8D8" fill-rule="evenodd">
        <g id="Rectangles">
            <path d="M0,0 L0,22 L22,22 L22,0 L0,0 Z M0,0" id="Rectangle 1 copy 2" fill="#FFFFFF"></path>
        </g>
        <path d="M2,7.00000003 L3.84415947,7.00000003 L3.84415947,14.0965447 L2,14.0965447 Z M10.2791802,7 L10.2791802,14.0965445 L8.67065322,14.0965445 L8.66353221,9.30510795 L8.02200211,14.0965445 L6.87113709,14.0965445 L6.20020999,9.40827133 L6.1926325,14.0965445 L4.58456202,14.0965445 L4.58456202,7 L6.97046607,7 C7.03364222,7.43100379 7.10640435,7.93513489 7.19140002,8.51202812 L7.45369061,10.3139179 L7.87802986,7 Z M11.0145616,7 L12.3915643,7 C13.280504,7 13.8822294,7.04090017 14.1953713,7.12260921 C14.509061,7.20477473 14.7476149,7.33934359 14.9105765,7.52558543 C15.0735381,7.71328799 15.1756973,7.92089286 15.2165974,8.15095631 C15.2579541,8.38047199 15.2784955,8.83046515 15.2784955,9.50239649 L15.2784955,11.988086 C15.2784955,12.6253252 15.2480029,13.05076 15.1886612,13.2654859 C15.1288629,13.4803031 15.0247866,13.6482859 14.8755192,13.7700735 C14.7267997,13.8911307 14.5432967,13.9758525 14.3247364,14.0246953 C14.1060848,14.0726252 13.7769663,14.0965445 13.3364678,14.0965445 L11.0145616,14.0965445 Z M17.6835715,7 L17.6835715,8.68923175 C17.8302826,8.51814488 17.9934268,8.39033186 18.1730041,8.30624914 C18.3538595,8.22253161 18.5497786,8.18035331 18.7607614,8.18035331 C19.0034236,8.18035331 19.2141325,8.21842333 19.3932533,8.29392432 C19.5719177,8.37042954 19.7083124,8.47687954 19.8019811,8.61373077 C19.8955585,8.75103848 19.9522527,8.88560734 19.971516,9.01670699 C19.9900488,9.14789793 20,9.42771717 20,9.85680376 L20,12.4745972 C20,12.9009449 19.971516,13.2182864 19.9136349,13.4269868 C19.8571233,13.6359611 19.7220067,13.8170904 19.5112065,13.9701009 C19.2998585,14.1231113 19.0492537,14.1996166 18.7590268,14.1996166 C18.5504177,14.1996166 18.3560506,14.153969 18.1753777,14.062674 C17.994431,13.9710138 17.8290044,13.8340713 17.6801935,13.6522116 L17.5657096,14.0965445 L15.9135436,14.0965445 L15.9135436,7 L17.6835715,7 L17.6835715,7 Z M17.6835715,7" id="IMDB" fill="#000000"></path>
    </g>
</svg>