<?xml version="1.0" encoding="UTF-8" standalone="no"?>
<svg width="22px" height="22px" viewBox="0 0 22 22" version="1.1" xmlns="http://www.w3.org/2000/svg" xmlns:xlink="http://www.w3.org/1999/xlink" xmlns:sketch="http://www.bohemiancoding.com/sketch/ns">
    <title>lastfm</title>
    <description>Created with Sketch (http://www.bohemiancoding.com/sketch)</description>
    <defs></defs>
    <g id="Page 1" fill="#D8D8D8" fill-rule="evenodd">
        <g id="Rectangles">
            <path d="M0,0 L0,22 L22,22 L22,0 L0,0 Z M0,0" id="Rectangle 1 copy 3" fill="#FFFFFF"></path>
        </g>
        <path d="M7.99054204,6.77424958 C8.66510165,6.76872753 8.98865558,6.81767115 9.54060967,7.00907834 C10.4512734,7.32487313 11.2268501,7.97755477 11.7596011,8.87691243 C12.5886197,10.4583338 13.3061252,12.3276156 13.8891917,13.5583415 C14.6698941,14.6342119 16.2645139,14.5842445 16.8527405,13.9322592 C18.2051068,12.4333068 16.1513944,11.598287 15.429563,11.3565849 C14.6212469,11.1039215 13.6726595,10.6674239 13.3128985,9.92393513 C12.6534539,8.04579802 13.8656213,6.81486876 15.429563,6.85720108 C15.9147733,6.78746529 16.8371395,7.06884892 17.4417358,8.04641158 L16.6543153,8.47297498 C16.3205204,8.11961848 15.8446652,7.8264393 15.3875478,7.82235808 C14.3695866,7.67899141 13.8125206,8.9773987 14.4277784,9.69880961 C14.6353519,9.91253597 14.8890115,10.0301916 15.8475055,10.3548141 C17.2168723,10.8149752 18.2151995,11.2689869 18.2905539,12.6804481 C18.3835395,14.5858784 16.4908355,15.7282204 14.5731995,15.286149 C13.800925,15.0764866 13.162862,14.5276969 12.75707,13.725313 C12.0436871,12.3344716 11.5443718,10.6244953 10.8095281,9.39719913 C10.1927846,8.4171374 9.20937931,7.87902983 8.03578361,7.88052582 C6.59737736,7.86116759 5.3380519,8.99770139 4.93027108,10.1436834 C4.62640972,11.3644992 4.92433883,12.6030566 5.77478044,13.4398585 C7.77015612,15.2086575 9.97162656,14.0503319 10.8472276,12.8043221 C10.8842241,12.8043221 11.3427306,13.790161 11.3427306,13.8696552 C10.7469551,14.5866953 9.62841796,15.2073166 8.80704471,15.3604727 C8.36891326,15.436875 7.66472344,15.437978 7.24943855,15.3626305 C5.64257164,15.0710645 4.30281786,13.8288051 3.85093297,12.211873 C3.18022709,9.51197312 4.94457948,7.35749532 6.9758382,6.88629012 C7.31570668,6.79655842 7.4827851,6.77842042 7.99054204,6.77426337 L7.99054204,6.77424958 Z M7.99054204,6.77424958" id="Shape" fill="#000000"></path>
    </g>
</svg>