<?xml version="1.0" encoding="UTF-8" standalone="no"?>
<svg width="22px" height="22px" viewBox="0 0 22 22" version="1.1" xmlns="http://www.w3.org/2000/svg" xmlns:xlink="http://www.w3.org/1999/xlink" xmlns:sketch="http://www.bohemiancoding.com/sketch/ns">
    <title>behance</title>
    <description>Created with Sketch (http://www.bohemiancoding.com/sketch)</description>
    <defs></defs>
    <g id="Page-1" stroke="none" stroke-width="1" fill="none" fill-rule="evenodd" sketch:type="MSPage">
        <g id="Rectangles" sketch:type="MSLayerGroup" transform="translate(-64.000000, -96.000000)" fill="#000000">
            <rect d="M64,96 L64,118 L86,118 L86,96 L64,96 Z M64,96" id="Rectangle-1-copy-5" sketch:type="MSShapeGroup" x="64" y="96" width="22" height="22"></rect>
        </g>
        <path d="M10.9243662,7.28912185 C11.2106097,7.68512787 11.3519379,8.16076554 11.3519379,8.71244784 C11.3519379,9.28278261 11.2084575,9.73976782 10.9200618,10.0855557 C10.7600811,10.2806891 10.5233384,10.45717 10.2098336,10.6164333 C10.6847538,10.7907621 11.0448898,11.0640923 11.2859369,11.4407285 C11.5284189,11.8159298 11.6489424,12.2714802 11.6489424,12.8066623 C11.6489424,13.3604968 11.512636,13.8562217 11.2342839,14.2945545 C11.0585204,14.5851024 10.8382779,14.8304539 10.5742739,15.0277396 C10.2772694,15.2558735 9.9257423,15.4115497 9.52041005,15.4954858 C9.1157952,15.5794219 8.67674505,15.6217486 8.20325958,15.6217486 L4,15.6217486 L4,6.29551978 L8.50743812,6.29551978 C9.64380323,6.31345483 10.4494459,6.64274245 10.9243662,7.28912185 C10.9243662,7.28912185 10.4494459,6.64274245 10.9243662,7.28912185 L10.9243662,7.28912185 L10.9243662,7.28912185 Z M6.15220665,7.91541398 L6.15220665,9.97220614 L8.12793235,9.97220614 C8.5325472,9.97220614 8.86111742,9.8954441 9.1143604,9.74120262 C9.36616858,9.58696115 9.49243137,9.3136309 9.49243137,8.92121189 C9.49243137,8.48718355 9.32599405,8.19950526 8.99096722,8.06104663 C8.70400633,7.96419733 8.33597899,7.91541398 7.88975482,7.91541398 L6.15220665,7.91541398 L6.15220665,7.91541398 L6.15220665,7.91541398 L6.15220665,7.91541398 Z M6.15220665,11.5160557 L6.15220665,14.0018544 L8.12506274,14.0018544 C8.52967759,14.0018544 8.84389976,13.9487666 9.06916406,13.8382867 C9.47808332,13.6345444 9.68326036,13.2478647 9.68326036,12.6739429 C9.68326036,12.188979 9.48382254,11.8539521 9.08925132,11.6746016 C8.86757404,11.5720131 8.55622147,11.5203601 8.15591104,11.5160557 L6.15220665,11.5160557 Z M17.2540059,8.78562287 C17.7196,8.99438692 18.1041276,9.32367453 18.4083061,9.77492053 C18.6823538,10.1723614 18.8588347,10.6322162 18.9406186,11.1559198 C18.9872497,11.4615331 19.0066196,11.9041703 18.9980107,12.4831139 L14.1311541,12.4831139 C14.157698,13.153885 14.3901363,13.6237834 14.8299039,13.8928092 C15.0946253,14.0606814 15.4167389,14.1439 15.7926576,14.1439 C16.1900985,14.1439 16.5143643,14.0427463 16.7633028,13.8368519 C16.8988918,13.7270893 17.018698,13.5728479 17.1227213,13.3784319 L18.9061832,13.3784319 C18.8602695,13.7751553 18.6450488,14.1769005 18.2590864,14.5865372 C17.660773,15.2350688 16.8221298,15.5614868 15.7445917,15.5614868 C14.8542955,15.5614868 14.0701749,15.2867218 13.3900776,14.7393439 C12.7106977,14.1898138 12.3699317,13.2988002 12.3699317,12.0627162 C12.3699317,10.9041116 12.6769798,10.0166851 13.2903587,9.39900177 C13.9058898,8.78131846 14.7014889,8.4728355 15.6814603,8.4728355 C16.2632735,8.4728355 16.7869771,8.57685883 17.2540059,8.78562287 C17.2540059,8.78562287 16.7869771,8.57685883 17.2540059,8.78562287 Z M14.6390749,10.2957545 C14.3908537,10.5497149 14.2366122,10.894068 14.1734808,11.3302485 L17.1844179,11.3302485 C17.1521348,10.8660893 16.9964585,10.5145622 16.7181065,10.2749499 C16.4404718,10.0339027 16.094684,9.91337915 15.6814603,9.91337915 C15.2323665,9.91337915 14.8851438,10.0425116 14.6390749,10.2957545 Z M13.7882358,6.68219957 L17.546706,6.68219957 L17.546706,7.61553986 L13.7882358,7.61553986 L13.7882358,6.68219957 Z M13.7882358,6.68219957" id="Behance" fill="#FFFFFF" sketch:type="MSShapeGroup"></path>
    </g>
</svg>