<?xml version="1.0" encoding="UTF-8" standalone="no"?>
<svg width="22px" height="22px" viewBox="0 0 22 22" version="1.1" xmlns="http://www.w3.org/2000/svg" xmlns:xlink="http://www.w3.org/1999/xlink" xmlns:sketch="http://www.bohemiancoding.com/sketch/ns">
    <title>myspace</title>
    <description>Created with Sketch (http://www.bohemiancoding.com/sketch)</description>
    <defs></defs>
    <g id="Page 1" fill="#D8D8D8" fill-rule="evenodd">
        <g id="Rectangles">
            <path d="M0,0 L0,22 L22,22 L22,0 L0,0 Z M0,0" id="Rectangle 1 copy 2" fill="#000000"></path>
        </g>
        <path d="M7.99988004,14.3716727 L7.99151015,15 L5,15 L5,14.3716727 C5,13.6100519 5.69112686,13 6.51183721,13 C7.33254968,13 8.01045343,13.610115 7.99987792,14.3716727 L7.99988004,14.3716727 Z M8,11.5000012 C8,12.3284274 7.33126376,13 6.50283756,13 C5.67440903,13 5,12.3284274 5,11.5000012 C5,10.6715726 5.67441137,10 6.50283756,10 C7.3312661,10 8,10.6715726 8,11.5000012 L8,11.5000012 Z M12.9998372,14.0575102 L12.9886786,15 L9,15 L9,14.0575077 C9,12.9150765 9.92150179,12 11.0157832,12 C12.1100646,12 13.013939,12.9151714 12.9998372,14.0575077 L12.9998372,14.0575102 Z M12,10.5 C12,11.3284271 11.3312641,12 10.502837,12 C9.67440997,12 9,11.3284271 9,10.5 C9,9.67157294 9.67440997,9 10.502837,9 C11.3312641,9 12,9.67157294 12,10.5 L12,10.5 Z M16.9998394,14.0575081 L16.9886795,15 L13,15 L13,14.0575081 C13,12.9150762 13.9215013,12 15.0157834,12 C16.1100655,12 17.0139378,12.9151736 16.9998372,14.0575081 L16.9998394,14.0575081 Z M17,10 C17,11.1045696 16.1083524,12 15.0037821,12 C13.8992119,12 13,11.1045696 13,10 C13,8.89543038 13.8992143,8 15.0037821,8 C16.1083524,8 17,8.89543038 17,10 L17,10 Z M17,10" id="Myspace" fill="#FFFFFF"></path>
    </g>
</svg>