<?xml version="1.0" encoding="UTF-8" standalone="no"?>
<svg width="22px" height="22px" viewBox="0 0 22 22" version="1.1" xmlns="http://www.w3.org/2000/svg" xmlns:xlink="http://www.w3.org/1999/xlink" xmlns:sketch="http://www.bohemiancoding.com/sketch/ns">
    <title>posterous</title>
    <description>Created with Sketch (http://www.bohemiancoding.com/sketch)</description>
    <defs></defs>
    <g id="Page 1" fill="#D8D8D8" fill-rule="evenodd">
        <g id="Rectangles">
            <path d="M0,0 L0,22 L22,22 L22,0 L0,0 Z M0,0" id="Rectangle 1 copy 4" fill="#000000"></path>
        </g>
        <path d="M8.05846112,16.5421687 L8.05846112,8.52053669 C8.05846112,7.61007667 8.03114732,6.87883352 8,6.15429901 L9.05900876,6.15429901 L9.13567908,7.4356517 L9.24685104,7.4356517 L9.29812432,7.40019168 C9.84248357,6.48398138 10.7395263,6 11.8924562,6 C13.7224808,6 15,7.52573932 15,9.71084337 C15,12.433598 13.3223576,13.6521769 11.6600493,13.6521769 C10.6887322,13.6521769 9.85206736,13.2271358 9.42127601,12.5160186 L9.39971249,12.4796002 L9.28470701,12.4796002 L9.25451807,12.5533954 L9.25451807,16.5421687 L8.05846112,16.5421687 L8.05846112,16.5421687 Z M11.4755613,6.93394031 C10.4697426,6.93394031 9.59570099,7.64314074 9.34939759,8.65902245 C9.2851862,8.89190854 9.25499726,9.06968784 9.25499726,9.21584064 L9.25499726,10.5130066 C9.25499726,10.7449343 9.27512322,10.9284639 9.31920865,11.0894715 C9.5770126,12.0732475 10.4256572,12.7340498 11.42908,12.7340498 C12.8532311,12.7340498 13.7737541,11.5715361 13.7737541,9.77265882 C13.7737541,8.10124589 12.8287924,6.93394031 11.4755613,6.93394031 L11.4755613,6.93394031 L11.4755613,6.93394031 Z M11.4755613,6.93394031" id="Posterous" fill="#FFFFFF"></path>
    </g>
</svg>