<?xml version="1.0" encoding="UTF-8" standalone="no"?>
<svg width="22px" height="22px" viewBox="0 0 22 22" version="1.1" xmlns="http://www.w3.org/2000/svg" xmlns:xlink="http://www.w3.org/1999/xlink" xmlns:sketch="http://www.bohemiancoding.com/sketch/ns">
    <title>soundcloud</title>
    <description>Created with Sketch (http://www.bohemiancoding.com/sketch)</description>
    <defs></defs>
    <g id="Page 1" fill="#D8D8D8" fill-rule="evenodd">
        <g id="Rectangles">
            <path d="M0,0 L0,22 L22,22 L22,0 L0,0 Z M0,0" id="Rectangle 1 copy 2" fill="#000000"></path>
        </g>
        <path d="M12.8253328,7.32511211 C12.4307265,7.3278686 12.0346656,7.39340992 11.6553761,7.53086903 C11.5763712,7.56047638 11.4483372,7.60380971 11.3921946,7.73237499 L11.4094741,14.5333297 C11.4430302,14.6073065 11.4872071,14.6483848 11.5610012,14.6747541 L17.6077707,14.6747541 C18.5961014,14.6921034 19.3663141,13.8467415 19.4909738,12.8170735 C19.5977329,11.7022034 18.9164651,10.7037833 17.7210192,10.5305928 C17.3814563,10.4815937 16.9583985,10.5302607 16.6143322,10.6661722 C16.6028015,10.6713331 16.5995136,10.6583477 16.5906729,10.576852 C16.5057498,9.83013584 16.1927389,9.17173693 15.6897462,8.55328717 C14.9972033,7.7903642 13.9162978,7.31752014 12.8253328,7.32511211 L12.8253328,7.32511211 Z M10.9519667,7.82249556 C10.8366193,7.82249556 10.7262037,9.46478819 10.7079278,12.7495495 C10.9904911,15.2685549 10.9586886,15.3339767 11.2255167,12.7495495 C11.1876232,9.46460221 11.0673141,7.82244906 10.95197,7.82249556 L10.9519667,7.82249556 Z M10.2211784,8.21354165 C10.105831,8.21711512 9.9978929,9.73265578 9.98431636,12.7495495 C10.2668797,15.2685549 10.2350771,15.3339767 10.5019052,12.7495495 C10.4593125,9.71837185 10.3365259,8.2099715 10.2211784,8.21354165 L10.2211784,8.21354165 Z M8.10084759,8.68221777 C8.09998743,8.68221777 8.09905089,8.68221777 8.09818741,8.68254988 C7.98966811,8.69895596 7.88772121,10.0500405 7.8602626,12.7496159 C8.14282592,15.2686213 8.11075766,15.3340431 8.37758576,12.7496159 C8.3255944,10.0475597 8.21031007,8.68709974 8.10084759,8.68228419 L8.10084759,8.68221777 Z M8.81276556,8.80935499 C8.70094511,8.80706345 8.59268153,10.1180727 8.56500373,12.7496159 C8.84756705,15.2686213 8.81576448,15.3340431 9.08259257,12.7496159 C9.03999984,10.1272853 8.92458932,8.81165981 8.81276556,8.80935499 L8.81276556,8.80935499 Z M7.40036407,8.86225632 C7.28384431,8.86348512 7.17831397,10.1603665 7.17413607,12.7496159 C7.45669939,15.2686213 7.42463113,15.3340431 7.69145922,12.7496159 C7.64416718,10.1554845 7.51688715,8.86103417 7.40036407,8.86225632 L7.40036407,8.86225632 Z M9.51564357,8.93935166 C9.5147502,8.93933173 9.51387676,8.93935166 9.51298339,8.93968376 C9.39881163,8.95735186 9.2928894,10.2450239 9.27930955,12.7496823 C9.56187287,15.2686878 9.5300703,15.3341095 9.79689839,12.7496823 C9.74997498,10.1944672 9.62904484,8.94157677 9.51564025,8.93941808 L9.51564357,8.93935166 Z M6.71077698,9.10875614 C6.61039762,9.10779303 6.51523899,10.3018939 6.46912925,12.7496823 C6.75169257,15.2686878 6.71989,15.3341095 6.98671809,12.7496823 C6.9201107,10.343673 6.81273717,9.10972257 6.71077698,9.10875614 L6.71077698,9.10875614 Z M6.0352812,9.78558036 C5.93990669,9.77975188 5.84366539,10.7619585 5.77369708,12.7496823 C6.0562604,15.2686878 6.02445783,15.3341095 6.29128592,12.7496823 C6.22519329,10.7852691 6.1306557,9.79140884 6.03528452,9.78558036 L6.0352812,9.78558036 Z M4.66116501,10.7702479 C4.60469353,10.7816989 4.54900914,11.4047882 4.42483431,12.6627533 C4.69200447,15.1539282 4.66195211,15.2186293 4.91424387,12.6627533 C4.7785715,11.3977077 4.71942987,10.7584315 4.66116501,10.7702479 L4.66116501,10.7702479 Z M3.97982082,10.8218208 C3.92335266,10.833046 3.86766495,11.4438639 3.74349012,12.6768446 C4.01066028,15.1185322 3.98060791,15.181948 4.23289968,12.6768446 C4.09931626,11.4559991 4.03988902,10.8297482 3.982481,10.8218208 C3.98158431,10.8218208 3.98071751,10.8214887 3.97982082,10.8218208 L3.97982082,10.8218208 Z M5.33267551,10.8500001 C5.2729527,10.8614544 5.21411662,11.4848061 5.0827882,12.7427712 C5.36535153,15.2339394 5.33354895,15.2986405 5.60037705,12.7427712 C5.45909538,11.4971871 5.39631719,10.8580869 5.33560138,10.8500001 C5.33465155,10.8500001 5.33362534,10.849668 5.33267551,10.8500001 L5.33267551,10.8500001 Z M3.31735027,11.1554489 C3.26087547,11.1648973 3.20492872,11.6792216 3.08075389,12.7169864 C3.34792405,14.772098 3.31787168,14.8254743 3.57016345,12.7169864 C3.43658003,11.6894438 3.37741848,11.1621176 3.32001045,11.1554489 L3.31735027,11.1554489 L3.31735027,11.1554489 Z M2.69129195,11.7194265 C2.64512574,11.725504 2.59954737,12.0561166 2.49802887,12.7237647 C2.71644905,14.0459061 2.69185985,14.080246 2.89811493,12.7237647 C2.78719782,12.0523505 2.73892606,11.7131563 2.69129195,11.7194265 L2.69129195,11.7194265 Z M2.69129195,11.7194265" id="Sound Cloud" fill="#FFFFFF"></path>
    </g>
</svg>