<?xml version="1.0" encoding="UTF-8" standalone="no"?>
<svg width="22px" height="22px" viewBox="0 0 22 22" version="1.1" xmlns="http://www.w3.org/2000/svg" xmlns:xlink="http://www.w3.org/1999/xlink" xmlns:sketch="http://www.bohemiancoding.com/sketch/ns">
    <title>facebook</title>
    <description>Created with Sketch (http://www.bohemiancoding.com/sketch)</description>
    <defs></defs>
    <g id="Page-1" stroke="none" stroke-width="1" fill="none" fill-rule="evenodd" sketch:type="MSPage">
        <path d="M12.5221646,5.01133486 C13.0019101,5.01200563 13.5029657,5.05670744 14,5.1019216 L13.9459811,7.14538986 L12.6108362,7.14538986 C11.9847996,7.13106114 11.7587276,7.38229735 11.7384056,8.11235061 L11.7384056,9.71763186 L14,9.71763186 L13.9103109,11.9064602 L11.7384056,11.9064602 L11.7384056,18 L9.53185105,18 L9.53185105,11.9064602 L8,11.9064602 L8,9.71763186 L9.53185105,9.71763186 L9.53185105,7.83848373 C9.53185105,6.48360613 10.0860874,5.62122713 11.1778486,5.18408166 C11.4582331,5.07006877 11.7802138,5.00878327 12.1440451,5.00080152 C12.2653211,4.99814206 12.3916197,5.00221383 12.5221646,5.01133486 Z M12.5221646,5.01133486" id="Facebook-copy" fill="#3B5998" sketch:type="MSShapeGroup"></path>
        <path d="M71,-0.5 L71,-3 L-3,-3 L-3,-0.5 L-3,-0.5 L-3,23 L-3,25 L71,25 L71,23 L71,-0.5 Z M68,0 L46,0 L46,22 L45,22 L45,0 L23,0 L23,2.22044605e-15 L23,22 L68,22 L68,-8.8817842e-16 Z M0,0 L22,0 L22,22 L-8.8817842e-16,22 L0,2.22044605e-15 L0,0 Z M0,0" id="Frame" fill="#CACACA" sketch:type="MSShapeGroup"></path>
    </g>
</svg>