<?xml version="1.0" encoding="UTF-8" standalone="no"?>
<svg width="22px" height="22px" viewBox="0 0 22 22" version="1.1" xmlns="http://www.w3.org/2000/svg" xmlns:xlink="http://www.w3.org/1999/xlink" xmlns:sketch="http://www.bohemiancoding.com/sketch/ns">
    <title>linkedin</title>
    <description>Created with Sketch (http://www.bohemiancoding.com/sketch)</description>
    <defs></defs>
    <g id="Page 1" fill="#D8D8D8" fill-rule="evenodd">
        <g id="Rectangles">
            <path d="M11,0 C4.92486775,0 0,4.923532 0,11 L0,11 C0,17.0751322 4.923532,22 11,22 L11,22 C17.0751322,22 22,17.076468 22,11 L22,11 C22,4.92486775 17.076468,0 11,0 L11,0 Z M11,0" id="Rectangle 1 copy 2" fill="#000000"></path>
        </g>
        <path d="M13.9820027,8.30513615 C14.6687065,8.30975069 15.3168025,8.53060054 15.8492508,9.11902371 C16.4025999,9.78804095 16.5802203,10.7105069 16.6,11.6483358 L16.6,15.9139413 L14.3323523,15.9139413 L14.3323523,11.938417 C14.3273165,11.1933 14.0918816,10.2875759 13.1821645,10.2574245 C12.6490078,10.2635616 12.2730572,10.5994343 12.0156157,11.1610484 C11.9453517,11.3417932 11.9352155,11.5495975 11.9318798,11.7568541 L11.9318798,15.9139413 L9.66519621,15.9139413 C9.67386948,13.8357083 9.68578907,11.7576221 9.68155715,9.67935566 C9.68155715,9.08900921 9.67631192,8.69150486 9.66519621,8.48669903 L11.9318798,8.48669903 L11.9318798,9.53431839 C12.1242718,9.23765262 12.3376663,8.95631298 12.6239151,8.72982018 C13.0121579,8.42943473 13.4785464,8.31428509 13.9820027,8.30513615 Z M7.28397367,4.93272003 C7.90857855,4.9403497 8.52384795,5.40749278 8.55062236,6.21616144 C8.56397107,6.93524403 7.98593267,7.48297783 7.26760965,7.49959616 L7.25028775,7.49959616 C6.63189215,7.49185964 6.02798177,7.01299659 6,6.21616144 C6.00881495,5.50507247 6.56018058,4.94958879 7.28397367,4.93272003 Z M6.12319987,8.50547771 L8.38988349,8.50547771 L8.38988349,15.93272 L6.12319987,15.93272 Z M6.12319987,8.50547771" id="LinkedIn" fill="#FFFFFF"></path>
    </g>
</svg>