<?xml version="1.0" encoding="UTF-8" standalone="no"?>
<svg width="22px" height="22px" viewBox="0 0 22 22" version="1.1" xmlns="http://www.w3.org/2000/svg" xmlns:xlink="http://www.w3.org/1999/xlink" xmlns:sketch="http://www.bohemiancoding.com/sketch/ns">
    <title>path</title>
    <description>Created with Sketch (http://www.bohemiancoding.com/sketch)</description>
    <defs></defs>
    <g id="Page 1" fill="#D8D8D8" fill-rule="evenodd">
        <g id="Rectangles">
            <path d="M11,0 C4.92486775,0 0,4.923532 0,11 L0,11 C0,17.0751322 4.923532,22 11,22 L11,22 C17.0751322,22 22,17.076468 22,11 L22,11 C22,4.92486775 17.076468,0 11,0 L11,0 Z M11,0" id="Rectangle 1 copy 3" fill="#000000"></path>
        </g>
        <path d="M16.5612326,12.2354179 C16.5455947,11.0861975 16.0440874,10.0439332 15.2322093,9.37622261 C14.1765061,8.57270094 12.8508758,8.30497856 11.6618071,8.28426927 L11.6618071,7.63771667 C11.6299552,6.80771081 11.144817,6.0873476 10.4549125,5.76990298 C10.2012409,5.64948607 9.9210852,5.59850083 9.66468268,5.59748987 C9.30313002,5.60186605 8.95140713,5.71119849 8.65893715,5.85611091 L8.65893715,7.72392737 C8.90564283,7.55009617 9.18834119,7.43311373 9.47071827,7.51559361 C9.72049004,7.60829103 9.8348274,7.80362921 9.83709858,8.0400176 L9.83709858,13.2267994 L11.6618099,13.2267994 L11.6618099,9.994042 C12.0810811,9.99984736 12.4946715,10.0458554 12.8758892,10.1305372 C13.3756405,10.2518377 13.8516053,10.443229 14.2120972,10.7627204 C14.6544762,11.1841685 14.8476983,11.6860026 14.8514652,12.2354206 C14.8446129,13.0489577 14.4352408,13.7254732 13.809799,14.1176037 C13.1008996,14.5231979 12.3148244,14.6604991 11.5612354,14.6635818 C10.7486178,14.6457779 9.94881023,14.4859782 9.29830514,14.0816858 C8.633932,13.6515906 8.27699924,12.9404229 8.27100554,12.2354206 C8.31319966,11.7273602 8.44329403,11.0199843 8.78824769,10.6980638 L7.62445286,9.44806394 C7.24682189,9.82574749 6.99797244,10.2881433 6.83422304,10.7555357 C6.67350096,11.2499137 6.56327389,11.742073 6.56123536,12.2354206 C6.58109712,13.4352025 7.11425969,14.5182539 7.95491251,15.2239264 C9.01564001,16.0531706 10.3474385,16.3670146 11.5612354,16.3733517 C12.8902032,16.3507618 14.2036357,16.0160866 15.1819248,15.2311111 C16.099302,14.4512984 16.5531062,13.3226017 16.5612354,12.2354206 L16.5612326,12.2354179 Z M16.5612326,12.2354179" id="Path" fill="#FFFFFF" transform="translate(11.561235, 10.985421) scale(1, -1) translate(-11.561235, -10.985421)"></path>
    </g>
</svg>