<?xml version="1.0" encoding="UTF-8" standalone="no"?>
<svg width="22px" height="22px" viewBox="0 0 22 22" version="1.1" xmlns="http://www.w3.org/2000/svg" xmlns:xlink="http://www.w3.org/1999/xlink" xmlns:sketch="http://www.bohemiancoding.com/sketch/ns">
    <title>pinterest</title>
    <description>Created with Sketch (http://www.bohemiancoding.com/sketch)</description>
    <defs></defs>
    <g id="Page 1" fill="#D8D8D8" fill-rule="evenodd">
        <g id="Rectangles">
            <path d="M11,0 C4.92486775,0 0,4.923532 0,11 L0,11 C0,17.0751322 4.923532,22 11,22 L11,22 C17.0751322,22 22,17.076468 22,11 L22,11 C22,4.92486775 17.076468,0 11,0 L11,0 Z M11,0" id="Rectangle 1 copy" fill="#000000"></path>
        </g>
        <path d="M11.0000013,4.50000254 C14.8615896,4.572216 17.4747897,7.53361034 17.5,11.0000013 C17.4309324,14.693331 14.4663922,17.4747897 11.0000013,17.5 C10.3587637,17.4975143 9.7327021,17.3977113 9.16090788,17.2332614 C9.28258227,17.0367177 9.40424396,16.819115 9.52591835,16.5804533 C9.78251596,16.0588132 9.89969621,15.5001535 10.0313186,14.9659831 C10.0874751,14.736683 10.1670315,14.4348469 10.2699803,14.0604749 C10.3822906,14.2757366 10.5858549,14.4629238 10.8806704,14.6220291 C11.650222,14.9964468 12.6035941,14.8727462 13.2883385,14.5237572 C14.2490002,13.978095 14.8119306,13.1305663 15.1133934,12.1792661 C15.6938687,9.9731462 14.9453862,7.8520138 12.944387,6.99892197 C10.5316383,6.27217387 7.83897825,7.17918268 6.90065266,9.33639515 C6.490975,10.7780238 6.51522558,12.628934 7.93953019,13.2321821 C8.01444267,13.260259 8.08229149,13.260259 8.14309441,13.2321821 C8.27677602,13.1558071 8.43181369,12.493833 8.40281252,12.3547533 C8.39344846,12.3126379 8.3606971,12.2541379 8.30454066,12.1792661 C7.51736543,11.1136065 7.99710342,9.527683 8.73272554,8.732723 C9.98361729,7.65828845 11.9304685,7.48382188 13.0777563,8.5080998 C14.0953718,9.69525348 13.8642536,11.5428299 13.2111256,12.7197613 C12.8502411,13.295293 12.3661207,13.7302216 11.7159863,13.7375798 C11.0316405,13.7224267 10.5154797,13.1433352 10.6911472,12.4881201 C10.8404365,11.7191804 11.2546362,10.9036997 11.2667399,10.1857444 C11.2336686,9.5885824 10.9346306,9.20984322 10.3822906,9.2030233 C9.50058867,9.31420121 9.1446528,10.1385585 9.13283093,10.8876884 C9.1610069,11.2476893 9.18285299,11.6140886 9.34341312,11.9125275 C9.15623347,12.6706279 9.011154,13.281318 8.90820773,13.7446003 C8.75038726,14.5665709 8.44094669,15.4262567 8.39578947,16.2224608 C8.381751,16.4845199 8.37940745,16.7278611 8.38876897,16.9524817 C5.98024014,15.8102923 4.51423652,13.579216 4.5,10.9999987 C4.57015682,7.24848892 7.53360781,4.52521035 10.9999987,4.5 L11.0000013,4.50000254 Z M11.0000013,4.50000254" id="Pinterest" fill="#FFFFFF"></path>
    </g>
</svg>