<?xml version="1.0" encoding="UTF-8" standalone="no"?>
<svg width="22px" height="22px" viewBox="0 0 22 22" version="1.1" xmlns="http://www.w3.org/2000/svg" xmlns:xlink="http://www.w3.org/1999/xlink" xmlns:sketch="http://www.bohemiancoding.com/sketch/ns">
    <title>youtube</title>
    <description>Created with Sketch (http://www.bohemiancoding.com/sketch)</description>
    <defs></defs>
    <g id="Page 1" fill="#D8D8D8" fill-rule="evenodd">
        <g id="Rectangles">
            <path d="M11,0 C4.92486775,0 0,4.923532 0,11 L0,11 C0,17.0751322 4.923532,22 11,22 L11,22 C17.0751322,22 22,17.076468 22,11 L22,11 C22,4.92486775 17.076468,0 11,0 L11,0 Z M11,0" id="Rectangle 1 copy 3" fill="#000000"></path>
        </g>
        <path d="M5.94058939,3.00003854 L6.98086745,3.00003854 L7.6518327,5.46814936 L7.71667388,5.46814936 L8.3560643,3.00003854 L9.40592757,3.00003854 L8.20326465,6.61299595 L8.20326465,9.17546226 L7.17031646,9.17546226 L7.17031646,6.72850994 Z M6.00585383,10.8596687 L15.9941125,10.8596687 C17.1029083,10.8596687 17.9999663,11.7512261 17.9999663,12.8510178 L17.9999663,17.0086509 C17.9999663,18.0977396 17.1019149,19 15.9941125,19 L6.00585383,19 C4.89705797,19 4,18.1084427 4,17.0086509 L4,12.8510178 C4,11.7619292 4.89805135,10.8596687 6.00585383,10.8596687 Z M9.5445411,5.6979586 C9.5445411,5.34558131 9.66663485,5.06561812 9.91082236,4.85692866 C10.1550099,4.64880939 10.4833807,4.54389447 10.895935,4.54389447 C11.2716938,4.54389447 11.579437,4.6539411 11.8197219,4.87403436 C12.0583344,5.09355742 12.1781981,5.37694175 12.1781981,5.72304695 L12.1781981,8.06937792 C12.1781981,8.45824736 12.0605644,8.76215852 11.826412,8.98396234 C11.5900296,9.20519598 11.2666763,9.3158128 10.8546795,9.3158128 C10.4577355,9.3158128 10.1399572,9.20120465 9.90190227,8.97312874 C9.66384732,8.74505282 9.5445411,8.43772053 9.5445411,8.05170204 Z M15.5049228,4.68424501 L15.5049228,9.24990952 L14.5813001,9.24990952 L14.5813001,8.74560617 C14.4129048,8.93070843 14.2360047,9.07340335 14.0505998,9.17025252 C13.8668958,9.26710168 13.6882948,9.3158128 13.5159306,9.3158128 C13.3010423,9.3158128 13.1417188,9.24761723 13.0328572,9.11179917 C12.9256966,8.97598111 12.8712658,8.77196749 12.8712658,8.50033136 L12.8712658,4.68481808 L13.7926205,4.68481808 L13.7926205,8.1845687 C13.7926205,8.2928793 13.813599,8.37081709 13.8521542,8.41895514 C13.8895753,8.46766626 13.9530779,8.49230836 14.03926,8.49230836 C14.1067316,8.49230836 14.1929137,8.45964325 14.2972394,8.39603226 C14.4004311,8.3318482 14.495685,8.24989891 14.5807331,8.14961131 L14.5807331,4.68424501 Z M7.88062443,11.8421225 L7.88117877,11.8421225 L7.88117877,12.6576246 L6.94655607,12.6576246 L6.94655607,17.4561441 L6.04353093,17.4561441 L6.04353093,12.6576246 L5.10890822,12.6576246 L5.10890822,11.8421225 Z M9.82821373,16.537985 L9.82878444,16.537985 L9.82878444,13.3865522 L10.6534493,13.3865522 L10.6534493,17.5362542 L9.82878444,17.5362542 L9.82878444,17.0801484 C9.67526551,17.2493952 9.51775166,17.3767606 9.35224798,17.4645395 C9.18788571,17.5534658 9.02808905,17.5964946 8.87342872,17.5964946 C8.68167273,17.5964946 8.53956785,17.5356805 8.44197775,17.4117574 C8.34609975,17.2872606 8.29701935,17.1036709 8.29701935,16.8558247 L8.29701935,13.3859784 L9.12168424,13.3859784 L9.12168424,16.5689657 C9.12168424,16.6670715 9.13937601,16.7382125 9.17304745,16.7812414 C9.20900169,16.8259914 9.26493052,16.8477927 9.34254604,16.8477927 C9.40189909,16.8477927 9.4795146,16.8191068 9.57196838,16.7600138 C9.66556357,16.7020683 9.75002751,16.627485 9.82821373,16.537985 Z M13.497741,13.5120301 C13.6354874,13.6867944 13.7035103,13.942132 13.7029434,14.2780427 L13.7029434,16.5556536 C13.7029434,16.846171 13.6388885,17.0697332 13.5102119,17.224638 C13.3826689,17.3789754 13.1961728,17.4561441 12.9535579,17.4561441 C12.7925703,17.4561441 12.6497223,17.4272058 12.5250136,17.3670596 C12.3991713,17.3080483 12.2812649,17.2155594 12.1746957,17.0895928 L12.1746957,17.4045091 L11.346517,17.4045091 L11.346517,11.8421225 L12.1746957,11.8421225 L12.1746957,13.6323224 C12.2852329,13.5086256 12.4025724,13.4115973 12.5255805,13.3474792 C12.650856,13.2827937 12.7761315,13.2504509 12.9036744,13.2504509 C13.1632951,13.2504509 13.3616952,13.3378331 13.497741,13.5120301 Z M16.4746638,15.5139552 L14.9443131,15.5139552 L14.9443131,16.2936927 C14.9443131,16.5114933 14.9697821,16.6624102 15.022381,16.7464435 C15.0755335,16.8310485 15.1663358,16.8722076 15.2936805,16.8722076 C15.4265618,16.8722076 15.5190251,16.836765 15.5721777,16.7647365 C15.6242229,16.6938513 15.6519065,16.5372178 15.6519065,16.2942644 L15.6519065,16.1056182 L16.4752175,16.1056182 L16.4752175,16.3177022 C16.4752175,16.7412986 16.3755564,17.0614255 16.173466,17.2763678 C15.9741439,17.4901668 15.6746071,17.5964946 15.2754093,17.5964946 C14.9171832,17.5964946 14.6342566,17.4827353 14.4288441,17.2557882 C14.2228779,17.0288411 14.1187875,16.7155742 14.1187875,16.3177022 L14.1187875,14.4603949 C14.1187875,14.1031105 14.232844,13.8104231 14.4592961,13.5840477 C14.6857481,13.3582439 14.9769798,13.2456279 15.3352059,13.2456279 C15.7017371,13.2456279 15.9835563,13.3508124 16.1801101,13.5600382 C16.3766638,13.7686923 16.4746638,14.0688112 16.4746638,14.4603949 Z M14.9510114,14.3994233 C14.9510114,14.2380558 14.9770625,14.1210377 15.0318783,14.0531778 C15.0866942,13.9815777 15.1757021,13.9473806 15.3005302,13.9473806 C15.4199311,13.9473806 15.5083963,13.9815777 15.5610412,14.0531778 C15.615857,14.121572 15.6435363,14.2385901 15.6435363,14.3994233 L15.6435363,14.7894838 L14.9504687,14.7894838 L14.9504687,14.3994233 L14.9510114,14.3994233 Z M14.9510114,14.3994233" id="Rectangle 1" fill="#FFFFFF"></path>
    </g>
</svg>