<?xml version="1.0" encoding="UTF-8" standalone="no"?>
<svg width="22px" height="22px" viewBox="0 0 22 22" version="1.1" xmlns="http://www.w3.org/2000/svg" xmlns:xlink="http://www.w3.org/1999/xlink" xmlns:sketch="http://www.bohemiancoding.com/sketch/ns">
    <title>vsco</title>
    <description>Created with Sketch (http://www.bohemiancoding.com/sketch)</description>
    <defs></defs>
    <g id="Page-1" stroke="none" stroke-width="1" fill="none" fill-rule="evenodd" sketch:type="MSPage">
        <g id="Rectangles" sketch:type="MSLayerGroup" transform="translate(-96.000000, -96.000000)" fill="#FFFFFF">
            <rect id="Rectangle-1-copy-6" sketch:type="MSShapeGroup" x="96" y="96" width="22" height="22"></rect>
        </g>
        <path d="M14.4794521,8.37255084 C12.3456488,8.37255084 10.684761,9.64959007 10.1319843,11.3957571 C9.65082703,11.7325953 9.14295458,11.9349206 8.43557097,11.9349206 C6.97391008,11.9349206 5.96157563,10.7437584 5.96157563,9.31441938 L5.96157563,9.28912872 C5.96157563,7.85951179 6.99778321,6.69197276 8.43557097,6.69197276 C9.28875121,6.69197276 9.95975672,7.04909908 10.6176889,7.63411923 L11.8110612,6.28648849 C11.0195532,5.52443374 10.0569545,5 8.44722333,5 C5.82828398,5 4,6.94237806 4,9.31441938 L4,9.33804252 C4,11.7320395 5.86466208,13.6274492 8.37531973,13.6274492 C9.00085261,13.6274492 9.52947195,13.5432396 9.99215597,13.3906619 C10.3164327,15.4369818 12.0816234,17 14.4544421,17 C17.0878759,17 19,15.0576219 19,12.6855806 L19,12.6622354 C19.0002842,10.2915837 17.111749,8.37255084 14.4794521,8.37255084 Z M17,12.5221286 C17,13.8861504 15.9797215,15 14.5113272,15 C13.0429329,15 12,13.8633593 12,12.4993375 L12,12.4770764 C12,11.1135846 13.0188971,10 14.4870151,10 C15.9562383,10 17,11.1358457 17,12.4993375 L17,12.5221286 Z" id="VSCO" fill="#000000" sketch:type="MSShapeGroup"></path>
    </g>
</svg>