<?xml version="1.0" encoding="UTF-8" standalone="no"?>
<svg width="22px" height="22px" viewBox="0 0 22 22" version="1.1" xmlns="http://www.w3.org/2000/svg" xmlns:xlink="http://www.w3.org/1999/xlink" xmlns:sketch="http://www.bohemiancoding.com/sketch/ns">
    <title>yelp</title>
    <description>Created with Sketch (http://www.bohemiancoding.com/sketch)</description>
    <defs></defs>
    <g id="Page 1" stroke="none" stroke-width="1" fill="none" fill-rule="evenodd">
        <g id="Rectangles" transform="translate(0.000000, -96.000000)" fill="#000000">
            <path d="M0,96 L0,118 L22,118 L22,96 L0,96 Z M0,96" id="Rectangle 1 copy 3"></path>
        </g>
        <path d="M6.85739278,5.2878946 C6.63725956,4.93053549 6.1955637,4.77329748 7.17329823,4.01140785 C7.95519997,3.39960904 9.45467881,3.22664723 10.0736248,3.34529046 C10.6925708,3.46393368 11.0170529,3.80699843 11.0199117,4.22582331 L11.0527888,9.55762128 C11.0556476,9.97644616 10.8383733,10.3609646 10.5667804,10.4124243 C10.293758,10.4653134 9.8935158,10.2137326 9.67338259,9.85923238 Z M12.4679309,11.328693 C12.2863924,11.0327997 12.3592937,10.5267792 12.6294572,10.2094443 L14.2289966,8.31829988 C14.4991601,7.99810611 14.9765918,7.95379358 15.3982756,8.31687044 C15.8199593,8.6799473 16.5932845,9.74058915 16.7076394,10.1008071 C16.8191354,10.4610251 16.8019822,11.0756828 16.3031089,11.194326 L13.5385788,11.7032054 C13.1297599,11.7961188 12.6494693,11.6274453 12.4679309,11.328693 Z M12.6952113,14.321933 C12.4936607,13.9531384 12.4550659,13.545749 12.6080156,13.4170997 C12.7638242,13.2884504 13.2198144,13.2770149 13.6214861,13.3942287 L16.1029878,14.1003703 C16.5046594,14.2175841 16.7876878,14.692157 16.6132966,15.2110425 C16.4389053,15.7299279 15.4969067,17.1121929 15.4969067,17.1121929 C15.2710557,17.4666932 14.4605653,17.5310178 14.2604442,17.1650821 Z M9.67910034,14.3748221 C9.94783439,14.0560578 10.3995363,13.8130536 10.6839942,13.8416423 C10.9655931,13.8673722 11.1914441,14.2290196 11.1842969,14.6478445 L11.1199723,17.9641371 C11.1113957,18.3829619 10.4195484,18.8046457 10.025024,18.6617021 L7.95662941,17.9469838 C7.56353439,17.8040402 7.42916736,17.053586 7.69647198,16.7319628 Z M9.22453954,11.4030237 C9.61191682,11.5559734 9.90066299,11.9562157 9.86063877,12.2921332 C9.82204398,12.6266213 9.46754374,13.0154281 9.07301928,13.1555128 L6.23701736,14.15183 C5.84106346,14.2919148 5.3407607,13.9502795 5.26785944,13.5257369 C5.19781706,13.0954765 5.26785944,11.027082 5.26785944,11.027082 C5.3879321,10.4324364 5.83677515,10.0693595 6.22558187,10.2237387 Z M9.22453954,11.4030237" id="Yelp" fill="#FFFFFF"></path>
    </g>
</svg>